<svg width="62" height="60" viewBox="0 0 62 60" fill="none" xmlns="http://www.w3.org/2000/svg">
<path d="M55.4842 57.5769H6.52638C5.32566 57.5762 4.17437 57.0965 3.32559 56.2432C2.4768 55.3899 2 54.2329 2 53.0265V6.54778C2 5.34164 2.47688 4.18489 3.32575 3.33202C4.17461 2.47914 5.32591 2 6.52638 2H55.508C56.6993 2 57.8419 2.4755 58.6843 3.32191C59.5267 4.16831 60 5.31628 60 6.51327V53.0265C60 54.2311 59.5247 55.3865 58.6782 56.2395C57.8317 57.0925 56.6831 57.5734 55.4842 57.5769Z" stroke="#5429CC" stroke-width="3" stroke-miterlimit="10"/>
<path d="M21.3485 33.0062C20.2916 32.1062 19.2346 31.3443 18.6903 30.1788C18.2331 29.1832 18.7537 28.2938 19.4671 27.5664C21.6603 25.3363 23.8623 23.1142 26.0731 20.9C29.6852 17.2655 33.3105 13.6124 36.9543 10.0071C39.0682 7.92569 40.3683 8.08233 42.2946 10.3469C42.8812 11.0345 42.823 11.4089 42.2391 12.0009C35.5327 18.7637 28.8387 25.5354 22.1571 32.3159C21.9034 32.5602 21.6259 32.7673 21.3485 33.0062Z" fill="#5429CC"/>
<path d="M22.7911 51.0328C21.4277 50.8443 20.487 49.7823 19.8132 48.6885C19.2847 47.8496 20.4923 47.3611 21.0023 46.8301C27.0639 40.5009 33.158 34.2018 39.2848 27.9328C39.7657 27.439 40.1753 25.9443 41.2798 27.0221C42.3843 28.1 44.1864 28.9363 43.2114 31.0283C42.9713 31.4871 42.658 31.9032 42.2839 32.2602C36.6468 38.0637 30.9948 43.8611 25.3278 49.6522C24.6593 50.3398 23.9934 51.0832 22.7911 51.0328Z" fill="#5429CC"/>
<path d="M26.731 37.1424C26.1741 37.1121 25.637 36.9249 25.1809 36.6024C24.7249 36.2799 24.3684 35.835 24.1521 35.3185C23.6236 34.1743 23.79 33.0486 24.6171 32.1964C27.6268 29.1168 30.6681 26.0451 33.7888 23.0849C34.9567 21.9778 36.4311 22.0973 37.6096 23.2336C38.8648 24.4389 39.0629 26.0106 37.9056 27.2398C34.9012 30.4256 31.7356 33.4734 28.5965 36.5318C28.3517 36.7686 28.0566 36.9466 27.7335 37.0523C27.4104 37.1581 27.0677 37.1889 26.731 37.1424Z" fill="#5429CC"/>
</svg>
